<svg width="268" height="61" viewBox="0 0 268 61" fill="none" xmlns="http://www.w3.org/2000/svg">
<path d="M37.0246 60.1582C37.1206 60.1342 37.2106 60.1102 37.3066 60.0862C37.5166 60.0322 37.7326 59.9781 37.9426 59.9181C38.5666 59.744 39.1845 59.552 39.7905 59.3419C39.8205 59.3299 39.8505 59.3179 39.8805 59.3119C41.2845 58.8197 42.6404 58.2315 43.9424 57.5412C44.0624 57.4752 44.1884 57.4092 44.3083 57.3432C44.4403 57.2711 44.5663 57.2051 44.6983 57.1331C58.2578 49.5343 63.8796 32.8182 57.1599 18.2929C51.2801 5.59225 39.4245 0.940551 29.3269 1.00057C18.2813 1.0666 7.9737 9.84781 12.6595 20.2016C15.4314 4.98603 42.5744 1.51676 50.9261 19.9195C57.3699 34.1087 50.8901 49.3362 37.8646 53.5798C16.1214 60.6564 -1.12796 43.25 0.935965 23.5268V23.5328L0.563979 25.1894C0.191993 27.0681 0 29.0068 0 30.9935C0 36.8637 1.68594 42.3377 4.59583 46.9594C4.61983 47.0014 4.64983 47.0434 4.67383 47.0854C4.73982 47.1875 4.80582 47.2895 4.87182 47.3915C7.20573 50.9808 10.2236 53.9399 13.6675 56.1667C13.7395 56.2148 13.8115 56.2628 13.8835 56.3048C13.9555 56.3528 14.0275 56.3948 14.0995 56.4428C17.5733 58.6216 21.5272 60.1042 25.763 60.6984C25.883 60.7164 26.003 60.7344 26.129 60.7464C26.177 60.7524 26.225 60.7584 26.273 60.7644C29.4409 61.1666 32.6988 61.0585 35.9147 60.4043C35.9387 60.3983 35.9627 60.3923 35.9927 60.3863C36.3346 60.3203 36.6826 60.2422 37.0246 60.1582Z" fill="url(#paint0_radial)"/>
<path opacity="0.34" d="M4.66166 46.1472C4.68573 46.1833 4.70979 46.2255 4.73386 46.2617C4.79402 46.3521 4.85419 46.4486 4.92037 46.539C7.10434 49.8248 9.93206 52.5257 13.1509 54.5695C13.217 54.6117 13.2832 54.6539 13.3494 54.6961C13.4156 54.7383 13.4818 54.7805 13.554 54.8227C16.8089 56.8122 20.5029 58.1687 24.4738 58.7174C24.5881 58.7355 24.7024 58.7475 24.8107 58.7656C24.8528 58.7716 24.901 58.7777 24.9431 58.7837C27.9092 59.1515 30.9535 59.055 33.9677 58.4581C33.9918 58.4521 34.0159 58.4461 34.0399 58.4461C34.3648 58.3798 34.6897 58.3134 35.0086 58.2351C35.0988 58.217 35.1831 58.1929 35.2733 58.1687C35.4718 58.1205 35.6704 58.0663 35.8689 58.012C36.4525 57.8552 37.0301 57.6804 37.5956 57.4875C37.6257 57.4754 37.6558 57.4694 37.6799 57.4573C38.9915 57.0052 40.2609 56.4686 41.4762 55.8416C41.5906 55.7813 41.7049 55.721 41.8192 55.6607C41.9395 55.5944 42.0598 55.5341 42.1802 55.4678C54.8809 48.5105 60.7469 32.7932 54.4597 19.5056C48.9547 7.88188 37.8303 3.23361 27.8069 4.10177C18.8785 4.87347 13.2712 9.86538 11.015 14.5679C10.9248 16.3766 11.2737 18.2817 12.1642 20.2531C14.9438 4.96993 42.1621 1.48524 50.537 19.9698C56.9987 34.222 50.5009 49.5173 37.4392 53.7797C15.6356 60.8938 -1.66161 43.4101 0.408041 23.5992C-1.12013 33.2032 1.94223 41.9149 4.66166 46.1472Z" fill="url(#paint1_linear)"/>
<path opacity="0.67" d="M14.965 14.8142C14.1437 7.96635 20.4097 3.31937 23 2C15.39 4.13084 9.34796 13.0512 13.1903 19C13.4085 17.8207 14.2241 15.8942 14.965 14.8142Z" fill="url(#paint2_linear)"/>
<g opacity="0.34">
<path d="M0.45651 23.6351C-0.0780528 26.9989 -0.0720465 30.4409 0.414466 33.8107C0.660725 35.4956 1.0151 37.1625 1.50161 38.7992C1.98212 40.43 2.57674 42.0306 3.30951 43.5711C3.6759 44.3414 4.07232 45.0935 4.52279 45.8156C4.63691 45.9962 4.74502 46.1767 4.86515 46.3512C4.97927 46.5317 5.1054 46.7062 5.22553 46.8807L5.40572 47.1455L5.59192 47.4043C5.71805 47.5788 5.83817 47.7473 5.97031 47.9158C6.9974 49.2697 8.15662 50.5274 9.41794 51.6647C11.9406 53.9453 14.8837 55.7505 18.049 56.9902C19.6347 57.6039 21.2684 58.0793 22.9382 58.4043C23.3526 58.4825 23.7731 58.5607 24.1935 58.6209L24.5058 58.669L24.8242 58.7112L25.4548 58.7834C26.3017 58.8736 27.1486 58.9218 27.9955 58.9338C31.3951 58.994 34.7947 58.4223 37.996 57.285C41.1974 56.1477 44.1885 54.4267 46.7953 52.2423C49.402 50.058 51.6063 47.4043 53.2881 44.4437C54.9699 41.4891 56.1171 38.2216 56.6276 34.8578C56.8859 33.1789 56.982 31.4699 56.9159 29.767C56.8499 28.064 56.6156 26.3731 56.2192 24.7183C55.4324 21.4086 53.9728 18.2675 52.0508 15.4633C51.0838 14.0673 49.9906 12.7555 48.7714 11.564C48.1647 10.9683 47.5281 10.4026 46.8674 9.87308C46.2067 9.34354 45.5159 8.83807 44.8072 8.37473C41.9602 6.51532 38.7468 5.23359 35.4133 4.5837C33.7435 4.25875 32.0498 4.09026 30.35 4.07823C28.6502 4.06619 26.9504 4.21061 25.2806 4.52352C23.6109 4.83643 21.9712 5.32385 20.4155 6.00383C18.8539 6.67779 17.3763 7.54431 16.0369 8.59136C14.6975 9.6384 13.4902 10.86 12.4872 12.238C11.9886 12.924 11.5382 13.6521 11.1598 14.4163C10.7814 15.1745 10.469 15.9748 10.2468 16.7992C10.469 15.9748 10.7754 15.1805 11.1598 14.4163C11.5382 13.6521 11.9826 12.924 12.4872 12.238C13.4842 10.86 14.6915 9.63238 16.0309 8.58534C17.3703 7.53829 18.8539 6.67177 20.4095 5.99179C21.9712 5.31181 23.6109 4.81838 25.2806 4.50547C26.9504 4.18654 28.6562 4.04212 30.356 4.05416C32.0558 4.06017 33.7556 4.23468 35.4253 4.55361C38.7648 5.2035 41.9842 6.48523 44.8372 8.34464C45.552 8.80799 46.2427 9.30744 46.9034 9.843C47.5701 10.3725 48.2068 10.9382 48.8134 11.5399C50.0327 12.7314 51.1258 14.0432 52.0989 15.4453C53.0659 16.8474 53.9068 18.3337 54.6155 19.8862C55.3243 21.4387 55.8829 23.0514 56.2793 24.7123C56.6757 26.3671 56.9099 28.064 56.976 29.767C57.0421 31.4699 56.946 33.1789 56.6937 34.8638C56.1832 38.2336 55.036 41.5071 53.3542 44.4677C51.6724 47.4344 49.4561 50.0941 46.8493 52.2784C44.2426 54.4688 41.2394 56.1838 38.0321 57.3271C34.8247 58.4644 31.4131 59.0361 28.0135 58.9759C27.1606 58.9639 26.3137 58.9097 25.4668 58.8195L24.8302 58.7473L24.5118 58.7051L24.1935 58.657C23.7731 58.5968 23.3526 58.5186 22.9382 58.4404C21.2684 58.1154 19.6287 57.634 18.043 57.0202C14.8777 55.7746 11.9286 53.9694 9.40593 51.6827C8.1446 50.5394 6.98538 49.2817 5.9583 47.9278C5.82616 47.7593 5.70604 47.5848 5.5799 47.4163L5.39371 47.1575L5.21352 46.8928C5.09339 46.7183 4.97326 46.5438 4.85314 46.3632C4.73301 46.1887 4.6249 46.0022 4.51078 45.8217C4.0603 45.0996 3.66389 44.3414 3.2975 43.5711C2.57074 42.0306 1.97611 40.43 1.4956 38.7932C1.0151 37.1565 0.660725 35.4896 0.414466 33.8047C-0.0780528 30.4409 -0.0780528 26.9989 0.45651 23.6351Z" fill="url(#paint3_linear)"/>
</g>
<path d="M28 1.04C28.3312 1 28.6624 0.980001 29 0.960001C28.6624 0.980001 28.3312 1.01 28 1.04Z" fill="url(#paint4_linear)"/>
<path d="M27 1.05994C27.6525 1.00599 28.3191 0.964036 29 0.94006C28.3121 0.958042 27.6454 1 27 1.05994Z" fill="url(#paint5_linear)"/>
<path d="M42.8801 28.3209C37.4745 39.5214 20.7852 38.507 13.8525 32.9857C2.38691 23.8383 7.98033 1.7714 28.7663 1C12.3617 1.48592 6.81074 20.2303 18.0036 26.8814C25.7908 31.5098 36.8807 28.4302 34.7354 20.8013L34.7899 18.8515L42.1832 20.4854C45.1041 22.8057 43.8558 25.5755 42.8801 28.3209Z" fill="url(#paint6_linear)"/>
<path opacity="0.21" d="M35.1648 20.2804C37.2912 27.7893 26.2991 30.8204 18.5806 26.2648C8.08101 20.0652 12.4478 3.21202 26.7195 1.01794C26.7135 1.00598 26.7075 1 26.7015 1C24.6352 1.26305 22.7371 1.75328 21.0192 2.42884C19.2473 3.25387 17.2111 4.56314 15.1268 6.63766C9.15619 14.4814 9.61269 23.7121 16.8326 29.3198C24.3289 35.1488 43.1596 31.3166 39.5436 19.3179L35.2189 18.3673L35.1648 20.2804Z" fill="url(#paint7_linear)"/>
<path d="M18.0663 27C17.1936 28.846 17.1814 29.5125 17.036 31.559C16.9996 32.1134 16.9936 32.6619 17.0057 33.2163C19.024 34.5256 21.2968 35.7995 25 36C23.8363 33.6114 23.5939 29.6127 24.5939 28.3152C22.7999 28.2267 18.3209 27.1769 18.0663 27Z" fill="url(#paint8_linear)"/>
<g opacity="0.26">
<path d="M15.1343 7.00588C13.6843 8.88824 12.5159 10.9882 11.8029 13.2412C11.4434 14.3647 11.2037 15.5294 11.0959 16.7C11.0419 17.2882 11.03 17.8765 11.0479 18.4647C11.0539 18.7588 11.0779 19.0529 11.1019 19.3471C11.1318 19.6412 11.1678 19.9353 11.2157 20.2235C11.4015 21.3882 11.743 22.5294 12.2283 23.6059C12.7136 24.6824 13.3428 25.7 14.0917 26.6176C14.4632 27.0824 14.8647 27.5176 15.2901 27.9353C15.7155 28.3529 16.1649 28.7471 16.6322 29.1118C17.555 29.8647 18.6215 30.4294 19.7419 30.8529C20.8624 31.2765 22.0368 31.5588 23.2231 31.7235C24.4095 31.8941 25.6138 31.9471 26.8122 31.9059C28.0105 31.8588 29.2089 31.7176 30.3833 31.4647C31.5577 31.2176 32.7081 30.8588 33.8046 30.3824C34.901 29.9059 35.9436 29.3 36.8663 28.5412C37.7831 27.7824 38.574 26.8647 39.1132 25.8118C39.3829 25.2882 39.5926 24.7294 39.7304 24.1588C39.8682 23.5882 39.9401 22.9941 39.9461 22.4059C39.9581 21.2235 39.7184 20.0529 39.3229 18.9353C39.7244 20.0471 39.9641 21.2176 39.9581 22.4059C39.9521 22.9941 39.8862 23.5882 39.7484 24.1647C39.6105 24.7412 39.4068 25.3 39.1372 25.8294C38.5979 26.8882 37.807 27.8118 36.8843 28.5706C35.9616 29.3294 34.919 29.9412 33.8165 30.4235C32.72 30.9059 31.5636 31.2647 30.3893 31.5118C29.2149 31.7647 28.0165 31.9118 26.8122 31.9588C25.6079 32.0059 24.4035 31.9471 23.2112 31.7824C22.0188 31.6118 20.8444 31.3353 19.718 30.9118C18.5975 30.4882 17.525 29.9118 16.5963 29.1588C16.1289 28.7882 15.6796 28.3941 15.2541 27.9765C14.8287 27.5588 14.4273 27.1176 14.0558 26.6529C13.3068 25.7235 12.6837 24.7059 12.1924 23.6235C11.707 22.5412 11.3655 21.4 11.1798 20.2294C11.1318 19.9353 11.0959 19.6471 11.0659 19.3529C11.0419 19.0588 11.018 18.7647 11.012 18.4706C10.994 17.8824 11.012 17.2882 11.0659 16.7C11.1738 15.5235 11.4134 14.3588 11.7789 13.2353C12.4979 10.9765 13.6783 8.88235 15.1343 7.00588Z" fill="url(#paint9_linear)"/>
</g>
<path d="M35.2002 23.4941C37.355 22.7885 40.5166 23.7253 42.0003 25.5692C42.5891 26.2984 42.8834 27.1285 42.9953 28C43.9255 25.4032 44.9912 22.7885 42.2358 20.5949L35.053 19L35 20.9032C35.3179 22.0474 35.2885 22.747 35.2002 23.4941Z" fill="url(#paint10_linear)"/>
<path d="M28 1.04C28.3312 1 28.6624 0.980001 29 0.960001C28.6624 0.980001 28.3312 1.01 28 1.04Z" fill="white"/>
<path d="M42.4923 28.1256C46.2018 21.5483 41.2739 9.99131 27.8292 12.3003C13.0937 14.8263 7.32133 34.8958 19.9216 45.4098C29.5905 53.4822 47.6676 47.2847 45.8761 33.3826C41.5815 44.1317 23.4803 45.3194 22.3041 32.213C20.9711 17.3704 45.5323 18.1421 42.4923 28.1256Z" fill="url(#paint11_linear)"/>
<path d="M42.4923 28.1256C46.2018 21.5483 41.2739 9.99131 27.8292 12.3003C13.0937 14.8263 7.32133 34.8958 19.9216 45.4098C29.5905 53.4822 47.6676 47.2847 45.8761 33.3826C41.5815 44.1317 23.4803 45.3194 22.3041 32.213C20.9711 17.3704 45.5323 18.1421 42.4923 28.1256Z" fill="url(#paint12_radial)"/>
<path opacity="0.33" d="M46 34.2987C45.988 33.9403 45.9701 33.582 45.9341 33.2176C41.6711 43.8669 23.7031 45.0435 22.5356 32.059C21.2183 17.3602 45.5988 18.1247 42.5812 28.0155C43.5751 26.3073 44.0062 23.9481 43.647 21.7263C42.4854 17.838 38.5338 15.1026 30.7382 16.2732C18.2965 18.1367 12.9199 34.6093 24.0743 42.2184C33.1571 48.4001 45.6946 43.628 46 34.2987Z" fill="url(#paint13_linear)"/>
<g opacity="0.45">
<path d="M43.5992 21.7583C43.3668 20.9842 43.0153 20.2398 42.5507 19.5788C42.086 18.9179 41.5021 18.3402 40.8468 17.8698C40.1915 17.3994 39.4587 17.0302 38.6962 16.7622C38.3149 16.6253 37.9277 16.5121 37.5345 16.4228C37.1413 16.3335 36.7421 16.2561 36.343 16.2025C34.7404 15.9881 33.1081 16.0417 31.5056 16.2322C31.1064 16.2799 30.7013 16.3394 30.3081 16.4109C29.909 16.4823 29.5158 16.5717 29.1226 16.6729C28.3421 16.8813 27.5796 17.1552 26.8409 17.4887C25.3694 18.1556 24.0111 19.0786 22.8434 20.1922C21.6698 21.3057 20.6809 22.6039 19.9124 24.0271C19.1439 25.4503 18.6017 26.9926 18.3277 28.5825C18.0477 30.1725 18.0358 31.8101 18.3217 33.4C18.6017 34.9899 19.1796 36.5263 20.0315 37.9018C20.8775 39.2774 21.9796 40.4922 23.2485 41.4926C24.5175 42.493 25.9353 43.3088 27.4426 43.8864C28.9498 44.4641 30.5524 44.8094 32.1668 44.9047C33.7813 45 35.4077 44.8452 36.9745 44.4343C38.5353 44.0234 40.0366 43.3565 41.3651 42.4275C42.6877 41.5045 43.8375 40.3076 44.6417 38.9023C45.0468 38.1996 45.3626 37.4493 45.583 36.6752C45.8034 35.8951 45.9226 35.0912 45.9524 34.2813C45.9285 35.0912 45.8094 35.8951 45.589 36.6752C45.3745 37.4552 45.0587 38.2055 44.6536 38.9082C43.8494 40.3195 42.7056 41.5164 41.383 42.4454C40.0545 43.3743 38.5532 44.0472 36.9864 44.4581C35.4196 44.869 33.7873 45.0298 32.1668 44.9345C30.5464 44.8392 28.9439 44.4938 27.4307 43.9162C25.9175 43.3386 24.4936 42.5228 23.2187 41.5164C21.9498 40.5101 20.8358 39.3012 19.9839 37.9138C19.1319 36.5322 18.5481 34.9899 18.2621 33.394C17.9762 31.7981 17.9941 30.1487 18.2741 28.5528C18.5541 26.9569 19.1021 25.4086 19.8707 23.9795C20.6392 22.5563 21.6341 21.2462 22.8136 20.1326C23.9932 19.0191 25.3515 18.0961 26.829 17.4292C27.5677 17.0957 28.3302 16.8218 29.1166 16.6133C29.5098 16.5121 29.903 16.4228 30.3021 16.3513C30.7013 16.2799 31.1004 16.2263 31.5056 16.1727C33.1141 15.9821 34.7464 15.9285 36.3549 16.1489C36.7541 16.2025 37.1532 16.2799 37.5524 16.3692C37.9456 16.4645 38.3387 16.5776 38.72 16.7146C39.4826 16.9885 40.2153 17.3577 40.8707 17.8281C41.526 18.3045 42.1098 18.8821 42.5685 19.5491C43.0213 20.2458 43.3728 20.9842 43.5992 21.7583Z" fill="url(#paint14_linear)"/>
</g>
<path fill-rule="evenodd" clip-rule="evenodd" d="M104.35 29V18.5H97.12V19.04H98.77V40.46H97.12V41H103.96L104.17 39.23C104.37 39.97 104.745 40.5 105.295 40.82C105.845 41.14 106.64 41.3 107.68 41.3C109.74 41.3 111.285 40.7 112.315 39.5C113.345 38.3 113.86 36.43 113.86 33.89C113.86 28.91 111.99 26.42 108.25 26.42C106.41 26.42 105.11 27.28 104.35 29ZM86.77 33.95L88.96 40.43H86.83V41H96.64V40.43H95.26L87.7 19.82H85.24L77.59 40.43H76.18V41H80.77V40.43H78.52L80.83 33.95H86.77ZM81.1 33.29L83.92 25.43L86.53 33.29H81.1ZM108.07 32.93C108.07 30.87 107.97 29.485 107.77 28.775C107.57 28.065 107.18 27.71 106.6 27.71C106.02 27.71 105.5 28.07 105.04 28.79C104.58 29.51 104.35 30.5 104.35 31.76V37.34C104.35 38.2 104.525 38.93 104.875 39.53C105.225 40.13 105.725 40.43 106.375 40.43C107.025 40.43 107.47 39.99 107.71 39.11C107.95 38.23 108.07 36.69 108.07 34.49V32.93ZM115.45 41.3V35.93H115.81C116.33 37.67 117.03 38.89 117.91 39.59C118.79 40.29 119.89 40.64 121.21 40.64C123.25 40.64 124.27 39.99 124.27 38.69C124.27 38.13 124.02 37.71 123.52 37.43C122.74 36.99 121.74 36.65 120.52 36.41C119.16 36.05 118.02 35.57 117.1 34.97C116 34.25 115.45 33.11 115.45 31.55C115.45 29.99 115.93 28.745 116.89 27.815C117.85 26.885 119.13 26.42 120.73 26.42C121.71 26.42 122.72 26.65 123.76 27.11C124.14 27.27 124.43 27.35 124.63 27.35C124.83 27.35 125 27.28 125.14 27.14C125.28 27 125.45 26.74 125.65 26.36H125.98V30.95H125.62C124.6 28.35 123.02 27.05 120.88 27.05C119.94 27.05 119.24 27.215 118.78 27.545C118.32 27.875 118.09 28.29 118.09 28.79C118.09 29.09 118.16 29.325 118.3 29.495C118.44 29.665 118.55 29.79 118.63 29.87C118.71 29.95 118.84 30.035 119.02 30.125C119.2 30.215 119.35 30.285 119.47 30.335C119.59 30.385 119.775 30.45 120.025 30.53C120.275 30.61 120.46 30.66 120.58 30.68C121.94 31.02 122.92 31.315 123.52 31.565C124.12 31.815 124.69 32.12 125.23 32.48C126.33 33.24 126.88 34.465 126.88 36.155C126.88 37.845 126.38 39.125 125.38 39.995C124.38 40.865 123.01 41.3 121.27 41.3C120.03 41.3 118.83 41.01 117.67 40.43C117.43 40.27 117.24 40.19 117.1 40.19C116.66 40.19 116.23 40.56 115.81 41.3H115.45ZM129.28 27.26V36.71C129.28 38.45 129.72 39.65 130.6 40.31C131.48 40.97 132.75 41.3 134.41 41.3C136.07 41.3 137.26 40.895 137.98 40.085C138.7 39.275 139.14 38.18 139.3 36.8L138.79 36.74C138.65 37.78 138.355 38.6 137.905 39.2C137.455 39.8 136.93 40.1 136.33 40.1C135.73 40.1 135.335 39.88 135.145 39.44C134.955 39 134.86 38.31 134.86 37.37V27.26H138.76V26.72H134.86V21.47L129.28 22.85V26.72H127.63V27.26H129.28ZM149.62 27.56C148.88 27.56 148.23 28.04 147.67 29C147.11 29.96 146.83 31.1 146.83 32.42V40.46H148.96V41H139.6V40.46H141.25V27.26H139.6V26.72H146.83V29.6C147.09 28.58 147.59 27.795 148.33 27.245C149.07 26.695 149.91 26.42 150.85 26.42C151.79 26.42 152.555 26.685 153.145 27.215C153.735 27.745 154.03 28.495 154.03 29.465C154.03 30.435 153.81 31.18 153.37 31.7C152.93 32.22 152.255 32.48 151.345 32.48C150.435 32.48 149.765 32.18 149.335 31.58C148.905 30.98 148.85 30.15 149.17 29.09H150.25C150.75 28.07 150.54 27.56 149.62 27.56ZM162.52 33.95H161.65C159.31 33.95 157.575 34.215 156.445 34.745C155.315 35.275 154.75 36.25 154.75 37.67C154.75 40.09 156.23 41.3 159.19 41.3C160.19 41.3 160.95 41.12 161.47 40.76C161.99 40.4 162.38 39.84 162.64 39.08C163 40.56 164.38 41.3 166.78 41.3C168.1 41.3 169.05 40.97 169.63 40.31C170.21 39.65 170.54 38.44 170.62 36.68L170.17 36.65C170.05 38.71 169.65 39.74 168.97 39.74C168.39 39.74 168.1 39.22 168.1 38.18V32.09C168.1 29.93 167.645 28.445 166.735 27.635C165.825 26.825 164.18 26.42 161.8 26.42C157.62 26.42 155.53 27.65 155.53 30.11C155.53 31.77 156.39 32.6 158.11 32.6C158.87 32.6 159.5 32.385 160 31.955C160.5 31.525 160.75 31.015 160.75 30.425C160.75 29.835 160.67 29.33 160.51 28.91H159.76C159.64 28.57 159.58 28.235 159.58 27.905C159.58 27.575 159.725 27.315 160.015 27.125C160.305 26.935 160.63 26.84 160.99 26.84C161.59 26.84 161.995 27.165 162.205 27.815C162.415 28.465 162.52 29.74 162.52 31.64V33.95ZM160.45 37.64C160.45 38.68 160.505 39.35 160.615 39.65C160.725 39.95 160.935 40.1 161.245 40.1C161.555 40.1 161.845 39.845 162.115 39.335C162.385 38.825 162.52 38.12 162.52 37.22V34.43H162.31C161.07 34.43 160.45 35.34 160.45 37.16V37.64ZM177.43 28.4C177.81 27.44 178.44 26.96 179.32 26.96C180.28 26.96 180.76 27.44 180.76 28.4C180.76 28.72 180.69 29.08 180.55 29.48H179.56C179.46 29.84 179.41 30.2 179.41 30.56C179.41 31.38 179.65 32 180.13 32.42C180.61 32.84 181.245 33.05 182.035 33.05C182.825 33.05 183.445 32.81 183.895 32.33C184.345 31.85 184.57 31.09 184.57 30.05C184.57 29.01 184.1 28.145 183.16 27.455C182.22 26.765 180.86 26.42 179.08 26.42C176.56 26.42 174.595 27.07 173.185 28.37C171.775 29.67 171.07 31.525 171.07 33.935C171.07 36.345 171.69 38.175 172.93 39.425C174.17 40.675 175.95 41.3 178.27 41.3C180.09 41.3 181.52 40.91 182.56 40.13C183.58 39.37 184.28 38.13 184.66 36.41L184.12 36.35C183.92 37.37 183.47 38.28 182.77 39.08C182.07 39.88 181.13 40.28 179.95 40.28C178.77 40.28 177.96 39.85 177.52 38.99C177.08 38.13 176.86 36.71 176.86 34.73V33.17C176.86 30.95 177.05 29.36 177.43 28.4ZM186.91 36.71V27.26H185.26V26.72H186.91V22.85L192.49 21.47V26.72H196.39V27.26H192.49V37.37C192.49 38.31 192.585 39 192.775 39.44C192.965 39.88 193.36 40.1 193.96 40.1C194.56 40.1 195.085 39.8 195.535 39.2C195.985 38.6 196.28 37.78 196.42 36.74L196.93 36.8C196.77 38.18 196.33 39.275 195.61 40.085C194.89 40.895 193.7 41.3 192.04 41.3C190.38 41.3 189.11 40.97 188.23 40.31C187.35 39.65 186.91 38.45 186.91 36.71ZM213.76 20H202.96V20.66H204.73V40.34H202.96V41H218.86L219.43 33.98H218.8C217.76 36.14 216.735 37.74 215.725 38.78C214.715 39.82 213.36 40.34 211.66 40.34H210.58V20.66H213.76V20ZM230.2 35.09V32.54C230.2 30.6 230.095 29.185 229.885 28.295C229.675 27.405 229.19 26.96 228.43 26.96C227.99 26.96 227.635 27.085 227.365 27.335C227.095 27.585 226.9 28 226.78 28.58C226.6 29.48 226.51 30.85 226.51 32.69V35.03C226.51 37.21 226.575 38.52 226.705 38.96C226.835 39.4 226.97 39.76 227.11 40.04C227.33 40.52 227.76 40.76 228.4 40.76C229.18 40.76 229.69 40.31 229.93 39.41C230.11 38.77 230.2 37.33 230.2 35.09ZM222.67 39.38C223.95 40.66 225.84 41.3 228.34 41.3C233.42 41.3 235.96 38.75 235.96 33.65C235.96 31.21 235.35 29.395 234.13 28.205C232.91 27.015 231.06 26.42 228.58 26.42C226.1 26.42 224.175 27.065 222.805 28.355C221.435 29.645 220.75 31.485 220.75 33.875C220.75 36.265 221.39 38.1 222.67 39.38ZM248.83 25.16L249.67 24.65C249.79 24.03 249.55 23.72 248.95 23.72C248.09 23.72 247.66 24.38 247.66 25.7C247.66 26.22 247.73 26.82 247.87 27.5C249.39 28.52 250.15 29.825 250.15 31.415C250.15 33.005 249.6 34.24 248.5 35.12C247.4 36 245.91 36.44 244.03 36.44C243.25 36.44 242.44 36.36 241.6 36.2C240.72 36.76 240.28 37.18 240.28 37.46C240.28 37.74 240.92 37.88 242.2 37.88H245.26C249.8 37.88 252.07 39.51 252.07 42.77C252.07 44.53 251.385 45.925 250.015 46.955C248.645 47.985 246.51 48.5 243.61 48.5C238.67 48.5 236.2 47.43 236.2 45.29C236.2 44.13 236.97 43.33 238.51 42.89L240.31 43.7C240.15 44.28 240.07 44.83 240.07 45.35C240.07 47.07 241.35 47.93 243.91 47.93C245.47 47.93 246.67 47.64 247.51 47.06C248.35 46.48 248.77 45.76 248.77 44.9C248.77 44.04 248.515 43.465 248.005 43.175C247.495 42.885 246.48 42.74 244.96 42.74H242.05C240.43 42.74 239.27 42.47 238.57 41.93C237.87 41.39 237.52 40.725 237.52 39.935C237.52 39.145 237.77 38.485 238.27 37.955C238.77 37.425 239.66 36.77 240.94 35.99C238.62 35.33 237.46 33.81 237.46 31.43C237.46 29.93 238 28.72 239.08 27.8C240.16 26.88 241.78 26.42 243.94 26.42C245.24 26.42 246.35 26.67 247.27 27.17C247.15 26.63 247.09 26.14 247.09 25.7C247.09 24.58 247.39 23.77 247.99 23.27C248.59 22.77 249.26 22.52 250 22.52C250.74 22.52 251.335 22.715 251.785 23.105C252.235 23.495 252.46 24.03 252.46 24.71C252.46 25.39 252.28 25.895 251.92 26.225C251.56 26.555 251.125 26.72 250.615 26.72C250.105 26.72 249.685 26.585 249.355 26.315C249.025 26.045 248.85 25.66 248.83 25.16ZM242.815 35.12C242.585 34.64 242.47 33.73 242.47 32.39V30.77C242.47 29.25 242.59 28.235 242.83 27.725C243.07 27.215 243.425 26.96 243.895 26.96C244.365 26.96 244.7 27.205 244.9 27.695C245.1 28.185 245.2 29.21 245.2 30.77V32.24C245.2 33.7 245.095 34.665 244.885 35.135C244.675 35.605 244.335 35.84 243.865 35.84C243.395 35.84 243.045 35.6 242.815 35.12ZM262.15 35.09V32.54C262.15 30.6 262.045 29.185 261.835 28.295C261.625 27.405 261.14 26.96 260.38 26.96C259.94 26.96 259.585 27.085 259.315 27.335C259.045 27.585 258.85 28 258.73 28.58C258.55 29.48 258.46 30.85 258.46 32.69V35.03C258.46 37.21 258.525 38.52 258.655 38.96C258.785 39.4 258.92 39.76 259.06 40.04C259.28 40.52 259.71 40.76 260.35 40.76C261.13 40.76 261.64 40.31 261.88 39.41C262.06 38.77 262.15 37.33 262.15 35.09ZM254.62 39.38C255.9 40.66 257.79 41.3 260.29 41.3C265.37 41.3 267.91 38.75 267.91 33.65C267.91 31.21 267.3 29.395 266.08 28.205C264.86 27.015 263.01 26.42 260.53 26.42C258.05 26.42 256.125 27.065 254.755 28.355C253.385 29.645 252.7 31.485 252.7 33.875C252.7 36.265 253.34 38.1 254.62 39.38Z" fill="#212212"/>
<defs>
<radialGradient id="paint0_radial" cx="0" cy="0" r="1" gradientUnits="userSpaceOnUse" gradientTransform="translate(15.5823 13.3673) scale(40.5301)">
<stop stop-color="#4A63AB"/>
<stop offset="1" stop-color="#BF57A8"/>
</radialGradient>
<linearGradient id="paint1_linear" x1="-0.000583706" y1="58.9965" x2="56.9999" y2="58.9965" gradientUnits="userSpaceOnUse">
<stop stop-color="#363F9A"/>
<stop offset="1" stop-color="#BF57A8"/>
</linearGradient>
<linearGradient id="paint2_linear" x1="7.74301" y1="22.7435" x2="19.0758" y2="21.2164" gradientUnits="userSpaceOnUse">
<stop offset="0.0005008" stop-color="#B7268F"/>
<stop offset="1" stop-color="#25A8CC" stop-opacity="0.2"/>
</linearGradient>
<linearGradient id="paint3_linear" x1="-5.00076" y1="11.258" x2="6.82598" y2="64.4762" gradientUnits="userSpaceOnUse">
<stop stop-color="#363F9A"/>
<stop offset="1" stop-color="#BF57A8"/>
</linearGradient>
<linearGradient id="paint4_linear" x1="166.33" y1="13.7911" x2="165.964" y2="-9.80592" gradientUnits="userSpaceOnUse">
<stop offset="0.0005008" stop-color="#B7268F"/>
<stop offset="1" stop-color="#25A8CC"/>
</linearGradient>
<linearGradient id="paint5_linear" x1="33.6461" y1="1.23844" x2="33.6399" y2="0.643886" gradientUnits="userSpaceOnUse">
<stop offset="0.0005008" stop-color="#B7268F"/>
<stop offset="1" stop-color="#25A8CC"/>
</linearGradient>
<linearGradient id="paint6_linear" x1="50.1871" y1="8.90638" x2="15.4797" y2="-5.39643" gradientUnits="userSpaceOnUse">
<stop offset="0.0005008" stop-color="#B7268F"/>
<stop offset="1" stop-color="#25A8CC"/>
</linearGradient>
<linearGradient id="paint7_linear" x1="24.8823" y1="0.352757" x2="4.84129" y2="17.2754" gradientUnits="userSpaceOnUse">
<stop offset="0.0005008" stop-color="#B7268F"/>
<stop offset="1" stop-color="#25A8CC"/>
</linearGradient>
<linearGradient id="paint8_linear" x1="15.994" y1="35.8021" x2="25.6482" y2="37.6401" gradientUnits="userSpaceOnUse">
<stop offset="0.0005008" stop-color="#B7268F"/>
<stop offset="0.999" stop-color="#25A8CC" stop-opacity="0.01"/>
</linearGradient>
<linearGradient id="paint9_linear" x1="45.0293" y1="15.3733" x2="18.6358" y2="1.04843" gradientUnits="userSpaceOnUse">
<stop offset="0.0005008" stop-color="#B7268F"/>
<stop offset="1" stop-color="#25A8CC"/>
</linearGradient>
<linearGradient id="paint10_linear" x1="35.3605" y1="16.623" x2="34.6652" y2="25.6553" gradientUnits="userSpaceOnUse">
<stop offset="0.0005008" stop-color="#B7268F"/>
<stop offset="0.999" stop-color="#25A8CC" stop-opacity="0.01"/>
</linearGradient>
<linearGradient id="paint11_linear" x1="60.899" y1="28.4863" x2="24.9551" y2="-0.856153" gradientUnits="userSpaceOnUse">
<stop stop-color="#B33798"/>
<stop offset="0.998" stop-color="#F249A2"/>
</linearGradient>
<radialGradient id="paint12_radial" cx="0" cy="0" r="1" gradientUnits="userSpaceOnUse" gradientTransform="translate(39.9799 19.717) scale(17.5332 19.6585)">
<stop offset="0.00204327" stop-color="#F249A2"/>
<stop offset="1" stop-color="#F249A2" stop-opacity="0.01"/>
</radialGradient>
<linearGradient id="paint13_linear" x1="48.9285" y1="41.2955" x2="40.6485" y2="14.8043" gradientUnits="userSpaceOnUse">
<stop stop-color="#B33798"/>
<stop offset="1" stop-color="#F249A2"/>
</linearGradient>
<linearGradient id="paint14_linear" x1="49.2812" y1="40.6111" x2="40.6319" y2="13.0027" gradientUnits="userSpaceOnUse">
<stop stop-color="#B33798"/>
<stop offset="1" stop-color="#F249A2"/>
</linearGradient>
</defs>
</svg>
